<svg width="36" height="36" viewBox="0 0 36 36" fill="none" xmlns="http://www.w3.org/2000/svg">
<path d="M19.9032 5.50322C20.3533 5.05329 20.9636 4.80054 21.6 4.80054C22.2364 4.80054 22.8467 5.05329 23.2968 5.50322L34.0968 16.3032C34.5467 16.7533 34.7995 17.3636 34.7995 18C34.7995 18.6364 34.5467 19.2468 34.0968 19.6968L23.2968 30.4968C22.8442 30.934 22.2379 31.1759 21.6087 31.1704C20.9794 31.165 20.3774 30.9126 19.9324 30.4676C19.4875 30.0226 19.2351 29.4207 19.2296 28.7914C19.2241 28.1621 19.466 27.5559 19.9032 27.1032L26.4 20.4H3.60001C2.96349 20.4 2.35304 20.1472 1.90296 19.6971C1.45287 19.247 1.20001 18.6365 1.20001 18C1.20001 17.3635 1.45287 16.7531 1.90296 16.303C2.35304 15.8529 2.96349 15.6 3.60001 15.6H26.4L19.9032 8.89682C19.4533 8.44676 19.2005 7.83642 19.2005 7.20002C19.2005 6.56363 19.4533 5.95329 19.9032 5.50322Z" fill="black"/>
</svg>
