<svg width="34" height="34" viewBox="0 0 34 34" fill="none" xmlns="http://www.w3.org/2000/svg">
<path d="M26.9167 26.9167H7.08333V11.3334H26.9167M22.6667 1.41669V4.25002H11.3333V1.41669H8.5V4.25002H7.08333C5.51083 4.25002 4.25 5.51085 4.25 7.08335V26.9167C4.25 27.6681 4.54851 28.3888 5.07986 28.9202C5.61122 29.4515 6.33189 29.75 7.08333 29.75H26.9167C27.6681 29.75 28.3888 29.4515 28.9201 28.9202C29.4515 28.3888 29.75 27.6681 29.75 26.9167V7.08335C29.75 6.33191 29.4515 5.61124 28.9201 5.07988C28.3888 4.54853 27.6681 4.25002 26.9167 4.25002H25.5V1.41669M24.0833 17H17V24.0834H24.0833V17Z" fill="white"/>
</svg>
