<svg width="36" height="36" viewBox="0 0 36 36" fill="none" xmlns="http://www.w3.org/2000/svg">
<path d="M24.4268 3.11209e-07C22.6199 -0.000414071 20.8381 0.422442 19.2242 1.23468C17.6102 2.04692 16.2089 3.22596 15.1326 4.67732C14.0563 6.12868 13.3349 7.81199 13.0262 9.59237C12.7175 11.3728 12.8301 13.2007 13.355 14.9297L0 28.2857V36H7.71371L21.0687 22.644C22.6602 23.1271 24.3371 23.2614 25.9852 23.0378C27.6332 22.8141 29.2137 22.2378 30.6189 21.3481C32.0241 20.4583 33.221 19.276 34.128 17.8818C35.035 16.4877 35.6308 14.9143 35.8748 13.269C36.1188 11.6237 36.0053 9.94513 35.5419 8.34768C35.0786 6.75024 34.2763 5.27147 33.1898 4.01215C32.1033 2.75283 30.7581 1.74256 29.2459 1.05019C27.7336 0.357813 26.0899 -0.000385423 24.4268 3.11209e-07ZM24.4268 20.5714C23.5416 20.5712 22.6613 20.4403 21.8144 20.1831L20.3398 19.7357L19.2509 20.8247L15.1613 24.9146L13.3884 23.1429L11.5706 24.9609L13.3434 26.7339L11.3044 28.773L9.53157 27L7.71371 28.818L9.48658 30.591L6.64922 33.4286H2.57124V29.3503L15.1729 16.7477L16.2631 15.6587L15.8157 14.184C15.2662 12.3724 15.3019 10.4337 15.9177 8.64356C16.5335 6.85343 17.6981 5.30309 19.2458 4.21306C20.7934 3.12303 22.6454 2.54882 24.5382 2.57211C26.431 2.5954 28.2683 3.215 29.7887 4.34278C31.3091 5.47056 32.4352 7.04908 33.0068 8.85382C33.5783 10.6585 33.5663 12.5976 32.9724 14.3951C32.3785 16.1926 31.233 17.7571 29.6988 18.8659C28.1645 19.9748 26.3197 20.5716 24.4268 20.5714Z" fill="white"/>
</svg>
