<svg width="27" height="27" viewBox="0 0 27 27" fill="none" xmlns="http://www.w3.org/2000/svg">
<path d="M18.7076 15.6273L19.2206 15.1176L18.0293 13.9206L17.5185 14.4303L18.7076 15.6273ZM20.9408 14.9039L23.0906 16.0728L23.895 14.59L21.7463 13.4223L20.9408 14.9039ZM23.5035 18.3948L21.906 19.9844L23.0951 21.1803L24.6926 19.5918L23.5035 18.3948ZM20.9318 20.4951C19.3005 20.6481 15.0818 20.512 10.512 15.9693L9.32176 17.1651C14.3078 22.123 19.0541 22.366 21.0893 22.1759L20.9318 20.4951ZM10.512 15.9693C6.15714 11.638 5.43489 7.99639 5.34489 6.41577L3.65964 6.51139C3.77214 8.50039 4.66651 12.5369 9.32176 17.1651L10.512 15.9693ZM12.0589 9.01677L12.3818 8.69502L11.1938 7.49914L10.8709 7.81977L12.0589 9.01677ZM12.6383 4.60564L11.2208 2.71114L9.86964 3.72364L11.2871 5.61702L12.6383 4.60564ZM6.44964 2.29827L4.68339 4.05327L5.87364 5.25027L7.63876 3.49527L6.44964 2.29827ZM11.4649 8.41827C10.8686 7.81977 10.8686 7.81977 10.8686 7.82202H10.8664L10.863 7.82652C10.8095 7.88042 10.7617 7.9396 10.7201 8.00314C10.6594 8.09314 10.593 8.21127 10.5368 8.36089C10.3998 8.74714 10.3657 9.16236 10.4378 9.56577C10.5885 10.5389 11.259 11.8248 12.9758 13.5325L14.166 12.3355C12.5584 10.738 12.1759 9.76602 12.105 9.30702C12.0713 9.08877 12.1061 8.98077 12.1163 8.95602C12.123 8.94102 12.123 8.93877 12.1163 8.94927C12.1062 8.96479 12.0949 8.97947 12.0825 8.99314L12.0713 9.00439L12.06 9.01452L11.4649 8.41827ZM12.9758 13.5325C14.6936 15.2403 15.9863 15.9063 16.9605 16.0548C17.4589 16.1313 17.8605 16.0705 18.1654 15.9569C18.3362 15.8944 18.4957 15.8048 18.6379 15.6914L18.6941 15.6408L18.702 15.634L18.7054 15.6306L18.7065 15.6284C18.7065 15.6284 18.7076 15.6273 18.1125 15.0288C17.5163 14.4303 17.5196 14.4291 17.5196 14.4291L17.5219 14.4269L17.5241 14.4246L17.5309 14.419L17.5421 14.4078L17.5849 14.374C17.5954 14.3673 17.5928 14.368 17.577 14.3763C17.5489 14.3864 17.4386 14.4213 17.217 14.3875C16.7513 14.3155 15.7725 13.933 14.166 12.3355L12.9758 13.5325ZM11.2208 2.71002C10.0733 1.18002 7.81876 0.937019 6.44964 2.29827L7.63876 3.49527C8.23726 2.90014 9.29926 2.96202 9.86964 3.72364L11.2208 2.71002ZM5.34601 6.41689C5.32351 6.02764 5.50239 5.62039 5.87364 5.25139L4.68226 4.05439C4.07814 4.65514 3.60226 5.50564 3.65964 6.51139L5.34601 6.41689ZM21.906 19.9844C21.5978 20.2926 21.2648 20.4659 20.9329 20.4963L21.0893 22.1759C21.9161 22.0983 22.5923 21.682 23.0963 21.1814L21.906 19.9844ZM12.3818 8.69502C13.4899 7.59364 13.572 5.85327 12.6394 4.60677L11.2883 5.61814C11.7416 6.22452 11.6741 7.01989 11.1926 7.50027L12.3818 8.69502ZM23.0918 16.0739C24.0109 16.5734 24.1538 17.7501 23.5046 18.3959L24.6949 19.5918C26.2024 18.0921 25.7378 15.5913 23.8961 14.5911L23.0918 16.0739ZM19.2206 15.1188C19.6526 14.689 20.3479 14.5833 20.9419 14.905L21.7474 13.4234C20.5279 12.7596 19.0159 12.943 18.0304 13.9218L19.2206 15.1188Z" fill="black"/>
</svg>
