<svg width="35" height="35" viewBox="0 0 35 35" fill="none" xmlns="http://www.w3.org/2000/svg">
<path fill-rule="evenodd" clip-rule="evenodd" d="M23.3334 13.125C23.3334 14.6721 22.7188 16.1558 21.6248 17.2498C20.5308 18.3438 19.0471 18.9583 17.5 18.9583C15.9529 18.9583 14.4692 18.3438 13.3752 17.2498C12.2813 16.1558 11.6667 14.6721 11.6667 13.125C11.6667 11.5779 12.2813 10.0942 13.3752 9.00021C14.4692 7.90625 15.9529 7.29167 17.5 7.29167C19.0471 7.29167 20.5308 7.90625 21.6248 9.00021C22.7188 10.0942 23.3334 11.5779 23.3334 13.125ZM20.4167 13.125C20.4167 13.8985 20.1094 14.6404 19.5624 15.1874C19.0154 15.7344 18.2736 16.0417 17.5 16.0417C16.7265 16.0417 15.9846 15.7344 15.4376 15.1874C14.8906 14.6404 14.5834 13.8985 14.5834 13.125C14.5834 12.3515 14.8906 11.6096 15.4376 11.0626C15.9846 10.5156 16.7265 10.2083 17.5 10.2083C18.2736 10.2083 19.0154 10.5156 19.5624 11.0626C20.1094 11.6096 20.4167 12.3515 20.4167 13.125Z" fill="white"/>
<path fill-rule="evenodd" clip-rule="evenodd" d="M17.5 1.45833C8.6406 1.45833 1.45831 8.64063 1.45831 17.5C1.45831 26.3594 8.6406 33.5417 17.5 33.5417C26.3594 33.5417 33.5416 26.3594 33.5416 17.5C33.5416 8.64063 26.3594 1.45833 17.5 1.45833ZM4.37498 17.5C4.37498 20.5479 5.41477 23.3537 7.15748 25.5821C8.38167 23.9752 9.96062 22.6729 11.7711 21.7769C13.5816 20.8809 15.5747 20.4154 17.5948 20.4167C19.5889 20.4143 21.5572 20.8674 23.3495 21.7414C25.1419 22.6153 26.7111 23.8871 27.9373 25.4596C29.2008 23.8023 30.0516 21.868 30.4192 19.8167C30.7868 17.7654 30.6606 15.656 30.0511 13.6631C29.4416 11.6702 28.3663 9.85111 26.9142 8.3563C25.4621 6.8615 23.6749 5.73396 21.7005 5.06699C19.7261 4.40002 17.6213 4.21279 15.5602 4.52079C13.4991 4.8288 11.5409 5.62318 9.84777 6.8382C8.15461 8.05323 6.77512 9.65398 5.82344 11.508C4.87176 13.362 4.37524 15.416 4.37498 17.5ZM17.5 30.625C14.4869 30.6299 11.5648 29.5933 9.22831 27.6908C10.1687 26.3442 11.4205 25.2448 12.8772 24.4861C14.3339 23.7274 15.9523 23.3319 17.5948 23.3333C19.2167 23.3319 20.8155 23.7175 22.2585 24.4582C23.7015 25.1988 24.9468 26.273 25.8912 27.5917C23.5367 29.556 20.5663 30.6298 17.5 30.625Z" fill="white"/>
</svg>
