<svg width="35" height="35" viewBox="0 0 35 35" fill="none" xmlns="http://www.w3.org/2000/svg">
<path d="M28.5833 30.625L19.3958 21.4375C18.6667 22.0208 17.8281 22.4826 16.8802 22.8229C15.9323 23.1632 14.9236 23.3333 13.8542 23.3333C11.2049 23.3333 8.96292 22.4156 7.12833 20.58C5.29375 18.7444 4.37597 16.5025 4.375 13.8542C4.37403 11.2058 5.29181 8.96389 7.12833 7.12833C8.96486 5.29278 11.2068 4.375 13.8542 4.375C16.5015 4.375 18.744 5.29278 20.5815 7.12833C22.419 8.96389 23.3363 11.2058 23.3333 13.8542C23.3333 14.9236 23.1632 15.9323 22.8229 16.8802C22.4826 17.8281 22.0208 18.6667 21.4375 19.3958L30.625 28.5833L28.5833 30.625ZM13.8542 20.4167C15.6771 20.4167 17.2268 19.7789 18.5033 18.5033C19.7799 17.2278 20.4176 15.6781 20.4167 13.8542C20.4157 12.0303 19.7779 10.481 18.5033 9.20646C17.2288 7.93188 15.679 7.29361 13.8542 7.29167C12.0293 7.28972 10.4801 7.92799 9.20646 9.20646C7.93285 10.4849 7.29458 12.0342 7.29167 13.8542C7.28875 15.6742 7.92702 17.2239 9.20646 18.5033C10.4859 19.7828 12.0351 20.4206 13.8542 20.4167Z" fill="white"/>
</svg>
