<svg width="35" height="35" viewBox="0 0 35 35" fill="none" xmlns="http://www.w3.org/2000/svg">
<path d="M22.1958 8.79375L25.8854 5.96458L21.2333 5.83333L19.6875 1.45833L18.1416 5.83333L13.4896 5.96458L17.1791 8.79375L15.8521 13.2562L19.6875 10.6167L23.5229 13.2562L22.1958 8.79375Z" fill="white"/>
<path d="M28.5979 17.8646L30.9896 16.0417L27.9854 15.9687L26.9792 13.125L25.9729 15.9687L22.9688 16.0417L25.3604 17.8646L24.5 20.7521L26.9792 19.0458L29.4583 20.7521L28.5979 17.8646Z" fill="white"/>
<path d="M10.2083 8.75C10.2083 17.6167 17.3833 24.7917 26.25 24.7917C27.0229 24.7917 27.7812 24.7333 28.525 24.6312C26.1771 28.2333 22.1229 30.625 17.5 30.625C10.2521 30.625 4.375 24.7479 4.375 17.5C4.375 12.8771 6.76667 8.82292 10.3688 6.475C10.2667 7.21875 10.2083 7.97708 10.2083 8.75Z" stroke="white" stroke-width="3" stroke-linecap="round" stroke-linejoin="round"/>
</svg>
